# xmcd
#
# Track frame offsets:
#	150
#	11872
#	18392
#	22800
#	29600
#	37082
#	49100
#	63801
#	69847
#	76315
#	83956
#	98521
#
# Disc length: 1407 seconds
#
# Revision: 1
# Processed by: cddbd v1.5.2PL0 Copyright (c) Steve Scherf et al.
# Submitted via: audiograbber 1.83.01
#
DISCID=89057d0c
DTITLE=Spoon - Get Nice!
DYEAR=2007
DGENRE=Indie
TTITLE0=I Got Mine
TTITLE1=Be Still My Servant
TTITLE2=Leave Your Effects Where They Are Easily Seen
TTITLE3=I Summon You (Cool)
TTITLE4=Mean Mad Margaret
TTITLE5=Love Makes You Feel
TTITLE6=You Got Yr. Cherry Bomb
TTITLE7=Tasty Fish
TTITLE8=Dracula's Cigarette
TTITLE9=1975
TTITLE10=I Can Feel It Fade Like An AM Single
TTITLE11=Curfew Tolls
EXTD=Bonus Disc w/ Ga Ga Ga Ga Ga
EXTT0=
EXTT1=
EXTT2=
EXTT3=
EXTT4=
EXTT5=
EXTT6=
EXTT7=
EXTT8=
EXTT9=
EXTT10=
EXTT11=
PLAYORDER=
